<?xml version="1.0"?>
<!DOCTYPE svg PUBLIC "-//W3C//DTD SVG 1.1//EN" "http://www.w3.org/Graphics/SVG/1.1/DTD/svg11.dtd"> 
<svg xmlns="http://www.w3.org/2000/svg" version="1.1" width="48px" height="96px" id="RSSicon" viewBox="0 0 256 512">
<g id="inactive">
	<circle cx="68" cy="189" r="24" fill="#888"/>
	<path d="M160 213h-34a82 82 0 0 0 -82 -82v-34a116 116 0 0 1 116 116z" fill="#888"/>
	<path d="M184 213A140 140 0 0 0 44 73 V 38a175 175 0 0 1 175 175z" fill="#888"/>
</g>
<g id="active" transform="matrix(1,0,0,1,0,256)">
	<circle cx="68" cy="189" r="24" fill="#38d"/>
	<path d="M160 213h-34a82 82 0 0 0 -82 -82v-34a116 116 0 0 1 116 116z" fill="#38d"/>
	<path d="M184 213A140 140 0 0 0 44 73 V 38a175 175 0 0 1 175 175z" fill="#38d"/>
</g>
</svg>
